<svg width="28" height="28" viewBox="0 0 28 28" fill="none" xmlns="http://www.w3.org/2000/svg">
<rect width="28" height="28" rx="14" fill="#E7E7E7"/>
<path d="M14.0002 14.2915C13.1349 14.2915 12.289 14.0349 11.5695 13.5542C10.8501 13.0735 10.2893 12.3902 9.95819 11.5907C9.62706 10.7913 9.54042 9.91165 9.70923 9.06299C9.87804 8.21432 10.2947 7.43477 10.9066 6.82291C11.5184 6.21106 12.298 5.79438 13.1466 5.62557C13.9953 5.45676 14.875 5.5434 15.6744 5.87453C16.4738 6.20567 17.1571 6.76642 17.6378 7.48589C18.1186 8.20535 18.3752 9.05121 18.3752 9.91651C18.3752 11.0768 17.9142 12.1896 17.0938 13.0101C16.2733 13.8306 15.1605 14.2915 14.0002 14.2915ZM14.0002 7.29151C13.481 7.29151 12.9735 7.44546 12.5418 7.7339C12.1101 8.02234 11.7737 8.43231 11.575 8.91196C11.3763 9.39162 11.3243 9.91942 11.4256 10.4286C11.5269 10.9378 11.7769 11.4055 12.144 11.7727C12.5111 12.1398 12.9789 12.3898 13.4881 12.4911C13.9973 12.5924 14.5251 12.5404 15.0047 12.3417C15.4844 12.143 15.8943 11.8066 16.1828 11.3749C16.4712 10.9432 16.6252 10.4357 16.6252 9.91651C16.6252 9.22031 16.3486 8.55263 15.8563 8.06035C15.364 7.56807 14.6964 7.29151 14.0002 7.29151Z" fill="#1E242E"/>
<path d="M22.1668 22.4582C21.9357 22.4552 21.7149 22.362 21.5515 22.1985C21.388 22.0351 21.2949 21.8143 21.2918 21.5832C21.2918 19.3082 20.0552 17.7915 14.0002 17.7915C7.94516 17.7915 6.7085 19.3082 6.7085 21.5832C6.7085 21.8152 6.61631 22.0378 6.45221 22.2019C6.28812 22.366 6.06556 22.4582 5.8335 22.4582C5.60143 22.4582 5.37887 22.366 5.21478 22.2019C5.05068 22.0378 4.9585 21.8152 4.9585 21.5832C4.9585 16.0415 11.2935 16.0415 14.0002 16.0415C16.7068 16.0415 23.0418 16.0415 23.0418 21.5832C23.0388 21.8143 22.9457 22.0351 22.7822 22.1985C22.6188 22.362 22.398 22.4552 22.1668 22.4582Z" fill="#1E242E"/>
</svg>
